HIERARCHY
ROOT Root
{
  OFFSET -7.96097 11.9045 7.82465
  CHANNELS 6 Xposition Yposition Zposition Zrotation Xrotation Yrotation
  JOINT Spine
  {
    OFFSET 5.3114 0 0
    CHANNELS 3 Zrotation Xrotation Yrotation
    JOINT Spine1
    {
      OFFSET 2.79004 0 0
      CHANNELS 3 Zrotation Xrotation Yrotation
      JOINT Neck
      {
        OFFSET 1.43377 0 0
        CHANNELS 3 Zrotation Xrotation Yrotation
        JOINT Head
        {
          OFFSET 1.86043 0 0
          CHANNELS 3 Zrotation Xrotation Yrotation
          End Site
          {
            OFFSET 0 0 0
          }
        }
      }
      JOINT LeftArm
      {
        OFFSET 0.0387506 0 2.55754
        CHANNELS 3 Zrotation Xrotation Yrotation
        JOINT LeftForeArm
        {
          OFFSET 4.24845 0 0
          CHANNELS 3 Zrotation Xrotation Yrotation
          JOINT LeftHand
          {
            OFFSET 4.01008 0 0
            CHANNELS 3 Zrotation Xrotation Yrotation
            End Site
            {
              OFFSET 0 0 0
            }
          }
        }
      }
      JOINT RightArm
      {
        OFFSET 0.0387506 0 -2.55754
        CHANNELS 3 Zrotation Xrotation Yrotation
        JOINT RightForeArm
        {
          OFFSET -4.24845 0 0
          CHANNELS 3 Zrotation Xrotation Yrotation
          JOINT RightHand
          {
            OFFSET -4.01009 0 0
            CHANNELS 3 Zrotation Xrotation Yrotation
            End Site
            {
              OFFSET 0 0 0
            }
          }
        }
      }
    }
  }
  JOINT LeftUpLeg
  {
    OFFSET -1.23318 0 2.05692
    CHANNELS 3 Zrotation Xrotation Yrotation
    JOINT LeftLeg
    {
      OFFSET 5.46397 0 0
      CHANNELS 3 Zrotation Xrotation Yrotation
      JOINT LeftFoot
      {
        OFFSET 4.68898 0 0
        CHANNELS 3 Zrotation Xrotation Yrotation
        End Site
        {
          OFFSET 0 0 0
        }
      }
    }
  }
  JOINT RightUpLeg
  {
    OFFSET -1.24454 0 -2.05007
    CHANNELS 3 Zrotation Xrotation Yrotation
    JOINT RightLeg
    {
      OFFSET -5.46397 0 0
      CHANNELS 3 Zrotation Xrotation Yrotation
      JOINT RightFoot
      {
        OFFSET -4.68901 0 0
        CHANNELS 3 Zrotation Xrotation Yrotation
        End Site
        {
          OFFSET 0 0 0
        }
      }
    }
  }
}
MOTION
Frames:	8
Frame Time:	0.0416667
5.11879 10.0487 10.5445 -105.195 -33.9124 174.46 6.60204 -2.35341 -9.15883 3.8635 -0.291549 3.22262 3.05572 -14.2328 -10.8323 3.77117 -23.6161 27.8302 9.23944 -45.9922 -155.05 86.7945 25.2537 42.6575 -7.37487 -42.4065 171.59 149.06 -16.9356 -146.299 79.6844 20.868 40.8972 -1.65655 -11.624 174.287 -0.873229 -2.36123 -159.312 -36.7546 0.666759 -0.681325 43.3313 -7.97111 -174.367 110.72 3.04714 -156.765 -68.5025 1.57503 -0.129862 -2.71801 4.98372 179.162 
4.99083 10.1202 10.4773 -104.109 -34.2984 174.897 6.56882 -1.82977 -9.82308 4.03004 -0.124027 3.01554 2.97531 -14.2497 -10.8031 3.49813 -23.7789 27.627 9.43123 -45.281 -155.034 85.9137 24.7037 42.4694 -6.84613 -40.3038 171.94 152.963 -16.7073 -146.098 72.152 16.4667 38.46 -0.378073 -2.68798 174.446 -0.729469 -2.73203 -159.824 -37.4925 0.688694 -0.664768 43.083 -7.98017 -174.47 112.878 2.53273 -156.779 -66.7843 1.55238 -0.169364 -1.24647 3.10023 179.074 
4.82983 10.2104 10.3972 -102.768 -34.749 175.279 6.42906 -1.37297 -10.5171 4.11859 0.0217109 2.97113 2.95012 -14.1913 -10.9173 3.3741 -23.6729 27.5511 10.0032 -44.3975 -154.974 85.503 24.4477 42.3788 -6.55717 -39.0951 172.124 157.619 -16.7328 -146.726 63.7572 11.9791 35.1499 1.00135 7.08936 174.392 -0.463884 -2.84494 -160.154 -37.9096 0.707521 -0.657005 42.5432 -7.96628 -174.697 115.645 1.96524 -156.912 -64.3305 1.51632 -0.225436 0.564151 1.30073 179.032 
4.63528 10.3264 10.2856 -101.366 -35.4972 175.535 5.87777 -0.747736 -11.0893 4.37363 0.197886 2.83379 3.32087 -14.248 -10.7291 3.1669 -23.8146 27.4894 11.3055 -44.0066 -154.333 85.6099 24.5143 42.4025 -6.66713 -39.5596 172.055 163.587 -16.8528 -147.79 54.9234 7.89248 31.1064 2.32128 16.0778 174.127 -0.676429 -2.82641 -160.183 -38.7266 0.79503 -0.647518 42.0738 -6.11014 -176.34 119.232 1.73562 -156.84 -60.7667 1.44212 -0.303237 3.04096 -0.700307 179.097 
4.38551 10.4848 10.1425 -100.069 -36.3811 175.492 4.98668 -0.0984632 -11.2019 4.81168 0.362952 2.85344 3.49039 -14.4112 -10.965 3.77094 -23.8198 28.0138 12.1797 -43.551 -154.399 85.6841 24.5605 42.4183 -6.64395 -39.47 172.069 170.707 -17.8608 -149.126 45.9537 4.49113 26.5511 2.53154 17.4469 174.066 -0.962954 -2.99323 -160.592 -39.2902 0.821808 -0.64146 41.22 -6.09267 -176.647 123.922 1.62127 -156.979 -55.5195 1.30294 -0.418443 6.9226 -3.89785 179.511 
4.06492 10.7102 9.96842 -98.9993 -37.5388 175.095 4.00816 0.243439 -10.9355 5.13297 0.425597 2.91005 3.61187 -14.6829 -10.8779 5.02911 -23.9466 28.4903 13.1994 -43.4541 -154.841 85.6261 24.5245 42.406 -6.60904 -39.3154 172.092 177.696 -18.0291 -152.031 38.0082 2.14849 22.2327 2.32773 16.1189 174.125 -1.31271 -3.88331 -161.239 -39.2949 0.835723 -0.654604 40.3424 -5.953 -177.056 130.602 0.847455 -157.597 -47.2811 1.06087 -0.608831 13.2319 -8.15297 -179.261 
3.66914 10.9406 9.77941 -98.7857 -38.7145 174.405 2.63401 -0.0920545 -10.825 5.31582 0.304769 3.70239 3.63546 -14.8604 -10.891 6.13543 -23.9119 28.7488 13.3473 -43.8592 -156.19 85.2573 24.2948 42.3237 -6.67827 -39.6069 172.048 -177.078 -15.0294 -156.055 31.9451 0.795382 18.8035 3.00643 20.4652 173.911 -2.66734 -5.33401 -162.494 -39.3633 0.85556 -0.675291 39.5707 -5.62197 -177.651 139.666 -3.07091 -158.457 -35.186 0.608167 -0.842927 24.9997 -12.2662 -176.204 
3.23955 11.0926 9.60139 -99.7325 -38.8927 173.113 0.640824 -0.387282 -10.4128 5.72708 0.184711 4.49161 3.43296 -14.8308 -10.9167 6.00232 -23.9515 28.3482 13.5396 -44.988 -157.124 85.3344 24.3428 42.3408 -6.91557 -40.588 171.895 -172.902 -9.38269 -160.588 29.0542 0.290781 17.134 4.02465 26.5377 173.506 -5.78014 -5.18802 -163.516 -40.5695 0.912171 -0.684559 38.716 -5.48459 -178.367 150.93 -8.16356 -157.764 -15.9378 -0.183041 -0.824343 43.9113 -10.5733 -172.951 
